<?xml version="1.0" encoding="utf-8"?>
<!-- Generator: Adobe Illustrator 22.0.1, SVG Export Plug-In . SVG Version: 6.00 Build 0)  -->
<svg version="1.1" id="Layer_1" xmlns="http://www.w3.org/2000/svg" xmlns:xlink="http://www.w3.org/1999/xlink" x="0px" y="0px"
	 width="750px" height="750px" viewBox="0 0 750 750" style="enable-background:new 0 0 750 750;" xml:space="preserve">
<style type="text/css">
	.st0{fill:none;}
</style>
<g>
	<path d="M410,279.8c-18.7,0-37,5.6-52.5,16c-15.5,10.5-27.7,25.3-34.8,42.7c-7.2,17.4-9,36.5-5.4,55c3.6,18.5,12.6,35.4,25.9,48.8
		s30.1,22.4,48.4,26.1c18.3,3.7,37.3,1.8,54.6-5.4c17.3-7.2,32-19.4,42.4-35.1c10.4-15.7,15.9-34.1,15.9-52.9
		c0-25.3-10-49.5-27.7-67.3C459.1,289.8,435,279.8,410,279.8z M410,426.3c-10.1,0-19.9-3-28.3-8.6c-8.4-5.6-14.9-13.6-18.7-23
		c-3.9-9.4-4.9-19.7-2.9-29.6c2-9.9,6.8-19.1,13.9-26.3c7.1-7.2,16.2-12.1,26.1-14c9.9-2,20.1-1,29.4,2.9
		c9.3,3.9,17.2,10.5,22.8,18.9c5.6,8.4,8.6,18.3,8.6,28.5c0,13.6-5.4,26.6-14.9,36.3C436.4,420.9,423.5,426.3,410,426.3z"/>
	<path d="M623,279.8c-18.7,0-37,5.6-52.5,16c-15.5,10.5-27.7,25.3-34.8,42.7c-7.2,17.4-9,36.5-5.4,55c3.6,18.5,12.6,35.4,25.9,48.8
		c13.2,13.3,30.1,22.4,48.4,26.1c18.3,3.7,37.3,1.8,54.6-5.4c17.3-7.2,32-19.4,42.4-35.1c10.4-15.7,15.9-34.1,15.9-52.9
		c0-25.3-10-49.5-27.7-67.3C672.1,289.8,648.1,279.8,623,279.8z M623,426.3c-10.1,0-19.9-3-28.3-8.6c-8.4-5.6-14.9-13.6-18.7-23
		c-3.9-9.4-4.9-19.7-2.9-29.6c2-9.9,6.8-19.1,13.9-26.3c7.1-7.2,16.2-12.1,26.1-14c9.9-2,20.1-1,29.4,2.9
		c9.3,3.9,17.2,10.5,22.8,18.9c5.6,8.4,8.6,18.3,8.6,28.5c0,13.6-5.4,26.6-14.9,36.3C649.4,420.9,636.5,426.3,623,426.3z"/>
	<path d="M307.6,281.3h-46l-21.2,69.8h45.4L307.6,281.3z"/>
	<path d="M202.3,347.8l22.8,53.8l8.3-27.5h45.1l-25.5,83.5c-2,6.5-8,11-15,11h-25.7c-6.3,0-12.1-3.8-14.5-9.9l-28.2-69.4l-27.9,69.1
		c-2.2,5.9-8,9.9-14.5,9.9h-25.9c-6.9,0-13-4.5-15-11L32.5,281.3h45.4l35.8,120.2l23.7-54.3c5.1-13.5,18.1-22.3,32.4-22.3
		C184.2,325,197.2,334,202.3,347.8z"/>
</g>
<rect x="10" y="248.5" class="st0" width="730" height="253"/>
</svg>
